G04 #@! TF.GenerationSoftware,KiCad,Pcbnew,8.0.0*
G04 #@! TF.CreationDate,2024-03-01T08:43:17-05:00*
G04 #@! TF.ProjectId,Rosco-MiniHat-4Mb,526f7363-6f2d-44d6-996e-694861742d34,rev?*
G04 #@! TF.SameCoordinates,Original*
G04 #@! TF.FileFunction,Soldermask,Top*
G04 #@! TF.FilePolarity,Negative*
%FSLAX46Y46*%
G04 Gerber Fmt 4.6, Leading zero omitted, Abs format (unit mm)*
G04 Created by KiCad (PCBNEW 8.0.0) date 2024-03-01 08:43:17*
%MOMM*%
%LPD*%
G01*
G04 APERTURE LIST*
G04 Aperture macros list*
%AMRoundRect*
0 Rectangle with rounded corners*
0 $1 Rounding radius*
0 $2 $3 $4 $5 $6 $7 $8 $9 X,Y pos of 4 corners*
0 Add a 4 corners polygon primitive as box body*
4,1,4,$2,$3,$4,$5,$6,$7,$8,$9,$2,$3,0*
0 Add four circle primitives for the rounded corners*
1,1,$1+$1,$2,$3*
1,1,$1+$1,$4,$5*
1,1,$1+$1,$6,$7*
1,1,$1+$1,$8,$9*
0 Add four rect primitives between the rounded corners*
20,1,$1+$1,$2,$3,$4,$5,0*
20,1,$1+$1,$4,$5,$6,$7,0*
20,1,$1+$1,$6,$7,$8,$9,0*
20,1,$1+$1,$8,$9,$2,$3,0*%
G04 Aperture macros list end*
%ADD10R,1.700000X1.700000*%
%ADD11O,1.700000X1.700000*%
%ADD12RoundRect,0.250000X-0.475000X0.337500X-0.475000X-0.337500X0.475000X-0.337500X0.475000X0.337500X0*%
%ADD13RoundRect,0.137500X-0.625000X-0.137500X0.625000X-0.137500X0.625000X0.137500X-0.625000X0.137500X0*%
%ADD14R,1.600000X1.600000*%
%ADD15O,1.600000X1.600000*%
%ADD16RoundRect,0.250000X0.475000X-0.337500X0.475000X0.337500X-0.475000X0.337500X-0.475000X-0.337500X0*%
%ADD17RoundRect,0.250000X0.337500X0.475000X-0.337500X0.475000X-0.337500X-0.475000X0.337500X-0.475000X0*%
%ADD18RoundRect,0.150000X-0.825000X-0.150000X0.825000X-0.150000X0.825000X0.150000X-0.825000X0.150000X0*%
G04 APERTURE END LIST*
D10*
X58638000Y-52550000D03*
D11*
X58638000Y-55090000D03*
X58638000Y-57630000D03*
X58638000Y-60170000D03*
X58638000Y-62710000D03*
D12*
X37750000Y-60212500D03*
X37750000Y-62287500D03*
D13*
X40662500Y-73350000D03*
X40662500Y-74150000D03*
X40662500Y-74950000D03*
X40662500Y-75750000D03*
X40662500Y-76550000D03*
X40662500Y-77350000D03*
X40662500Y-78150000D03*
X40662500Y-78950000D03*
X40662500Y-79750000D03*
X40662500Y-80550000D03*
X40662500Y-81350000D03*
X40662500Y-82150000D03*
X40662500Y-82950000D03*
X40662500Y-83750000D03*
X40662500Y-84550000D03*
X40662500Y-85350000D03*
X40662500Y-86150000D03*
X40662500Y-86950000D03*
X40662500Y-87750000D03*
X40662500Y-88550000D03*
X40662500Y-89350000D03*
X40662500Y-90150000D03*
X51837500Y-90150000D03*
X51837500Y-89350000D03*
X51837500Y-88550000D03*
X51837500Y-87750000D03*
X51837500Y-86950000D03*
X51837500Y-86150000D03*
X51837500Y-85350000D03*
X51837500Y-84550000D03*
X51837500Y-83750000D03*
X51837500Y-82950000D03*
X51837500Y-82150000D03*
X51837500Y-81350000D03*
X51837500Y-80550000D03*
X51837500Y-79750000D03*
X51837500Y-78950000D03*
X51837500Y-78150000D03*
X51837500Y-77350000D03*
X51837500Y-76550000D03*
X51837500Y-75750000D03*
X51837500Y-74950000D03*
X51837500Y-74150000D03*
X51837500Y-73350000D03*
D14*
X111867000Y-52387000D03*
D15*
X111867000Y-54927000D03*
X111867000Y-57467000D03*
X111867000Y-60007000D03*
X111867000Y-62547000D03*
X111867000Y-65087000D03*
X111867000Y-67627000D03*
X111867000Y-70167000D03*
X111867000Y-72707000D03*
X111867000Y-75247000D03*
X111867000Y-77787000D03*
X111867000Y-80327000D03*
X111867000Y-82867000D03*
X111867000Y-85407000D03*
X111867000Y-87947000D03*
X111867000Y-90487000D03*
X127107000Y-90487000D03*
X127107000Y-87947000D03*
X127107000Y-85407000D03*
X127107000Y-82867000D03*
X127107000Y-80327000D03*
X127107000Y-77787000D03*
X127107000Y-75247000D03*
X127107000Y-72707000D03*
X127107000Y-70167000D03*
X127107000Y-67627000D03*
X127107000Y-65087000D03*
X127107000Y-62547000D03*
X127107000Y-60007000D03*
X127107000Y-57467000D03*
X127107000Y-54927000D03*
X127107000Y-52387000D03*
D16*
X83000000Y-62133000D03*
X83000000Y-60058000D03*
X83000000Y-82183500D03*
X83000000Y-80108500D03*
D13*
X69082500Y-53100000D03*
X69082500Y-53900000D03*
X69082500Y-54700000D03*
X69082500Y-55500000D03*
X69082500Y-56300000D03*
X69082500Y-57100000D03*
X69082500Y-57900000D03*
X69082500Y-58700000D03*
X69082500Y-59500000D03*
X69082500Y-60300000D03*
X69082500Y-61100000D03*
X69082500Y-61900000D03*
X69082500Y-62700000D03*
X69082500Y-63500000D03*
X69082500Y-64300000D03*
X69082500Y-65100000D03*
X69082500Y-65900000D03*
X69082500Y-66700000D03*
X69082500Y-67500000D03*
X69082500Y-68300000D03*
X69082500Y-69100000D03*
X69082500Y-69900000D03*
X80257500Y-69900000D03*
X80257500Y-69100000D03*
X80257500Y-68300000D03*
X80257500Y-67500000D03*
X80257500Y-66700000D03*
X80257500Y-65900000D03*
X80257500Y-65100000D03*
X80257500Y-64300000D03*
X80257500Y-63500000D03*
X80257500Y-62700000D03*
X80257500Y-61900000D03*
X80257500Y-61100000D03*
X80257500Y-60300000D03*
X80257500Y-59500000D03*
X80257500Y-58700000D03*
X80257500Y-57900000D03*
X80257500Y-57100000D03*
X80257500Y-56300000D03*
X80257500Y-55500000D03*
X80257500Y-54700000D03*
X80257500Y-53900000D03*
X80257500Y-53100000D03*
D16*
X54750000Y-81933500D03*
X54750000Y-79858500D03*
X54750000Y-61883000D03*
X54750000Y-59808000D03*
D14*
X87667000Y-52387000D03*
D15*
X87667000Y-54927000D03*
X87667000Y-57467000D03*
X87667000Y-60007000D03*
X87667000Y-62547000D03*
X87667000Y-65087000D03*
X87667000Y-67627000D03*
X87667000Y-70167000D03*
X87667000Y-72707000D03*
X87667000Y-75247000D03*
X87667000Y-77787000D03*
X87667000Y-80327000D03*
X87667000Y-82867000D03*
X87667000Y-85407000D03*
X87667000Y-87947000D03*
X87667000Y-90487000D03*
X102907000Y-90487000D03*
X102907000Y-87947000D03*
X102907000Y-85407000D03*
X102907000Y-82867000D03*
X102907000Y-80327000D03*
X102907000Y-77787000D03*
X102907000Y-75247000D03*
X102907000Y-72707000D03*
X102907000Y-70167000D03*
X102907000Y-67627000D03*
X102907000Y-65087000D03*
X102907000Y-62547000D03*
X102907000Y-60007000D03*
X102907000Y-57467000D03*
X102907000Y-54927000D03*
X102907000Y-52387000D03*
D12*
X66500000Y-80552000D03*
X66500000Y-82627000D03*
D17*
X61187500Y-66750000D03*
X59112500Y-66750000D03*
D12*
X66500000Y-60462500D03*
X66500000Y-62537500D03*
D18*
X57675000Y-69305000D03*
X57675000Y-70575000D03*
X57675000Y-71845000D03*
X57675000Y-73115000D03*
X57675000Y-74385000D03*
X57675000Y-75655000D03*
X57675000Y-76925000D03*
X57675000Y-78195000D03*
X62625000Y-78195000D03*
X62625000Y-76925000D03*
X62625000Y-75655000D03*
X62625000Y-74385000D03*
X62625000Y-73115000D03*
X62625000Y-71845000D03*
X62625000Y-70575000D03*
X62625000Y-69305000D03*
D13*
X69082500Y-73100000D03*
X69082500Y-73900000D03*
X69082500Y-74700000D03*
X69082500Y-75500000D03*
X69082500Y-76300000D03*
X69082500Y-77100000D03*
X69082500Y-77900000D03*
X69082500Y-78700000D03*
X69082500Y-79500000D03*
X69082500Y-80300000D03*
X69082500Y-81100000D03*
X69082500Y-81900000D03*
X69082500Y-82700000D03*
X69082500Y-83500000D03*
X69082500Y-84300000D03*
X69082500Y-85100000D03*
X69082500Y-85900000D03*
X69082500Y-86700000D03*
X69082500Y-87500000D03*
X69082500Y-88300000D03*
X69082500Y-89100000D03*
X69082500Y-89900000D03*
X80257500Y-89900000D03*
X80257500Y-89100000D03*
X80257500Y-88300000D03*
X80257500Y-87500000D03*
X80257500Y-86700000D03*
X80257500Y-85900000D03*
X80257500Y-85100000D03*
X80257500Y-84300000D03*
X80257500Y-83500000D03*
X80257500Y-82700000D03*
X80257500Y-81900000D03*
X80257500Y-81100000D03*
X80257500Y-80300000D03*
X80257500Y-79500000D03*
X80257500Y-78700000D03*
X80257500Y-77900000D03*
X80257500Y-77100000D03*
X80257500Y-76300000D03*
X80257500Y-75500000D03*
X80257500Y-74700000D03*
X80257500Y-73900000D03*
X80257500Y-73100000D03*
D12*
X37750000Y-80302000D03*
X37750000Y-82377000D03*
D13*
X40662500Y-53100000D03*
X40662500Y-53900000D03*
X40662500Y-54700000D03*
X40662500Y-55500000D03*
X40662500Y-56300000D03*
X40662500Y-57100000D03*
X40662500Y-57900000D03*
X40662500Y-58700000D03*
X40662500Y-59500000D03*
X40662500Y-60300000D03*
X40662500Y-61100000D03*
X40662500Y-61900000D03*
X40662500Y-62700000D03*
X40662500Y-63500000D03*
X40662500Y-64300000D03*
X40662500Y-65100000D03*
X40662500Y-65900000D03*
X40662500Y-66700000D03*
X40662500Y-67500000D03*
X40662500Y-68300000D03*
X40662500Y-69100000D03*
X40662500Y-69900000D03*
X51837500Y-69900000D03*
X51837500Y-69100000D03*
X51837500Y-68300000D03*
X51837500Y-67500000D03*
X51837500Y-66700000D03*
X51837500Y-65900000D03*
X51837500Y-65100000D03*
X51837500Y-64300000D03*
X51837500Y-63500000D03*
X51837500Y-62700000D03*
X51837500Y-61900000D03*
X51837500Y-61100000D03*
X51837500Y-60300000D03*
X51837500Y-59500000D03*
X51837500Y-58700000D03*
X51837500Y-57900000D03*
X51837500Y-57100000D03*
X51837500Y-56300000D03*
X51837500Y-55500000D03*
X51837500Y-54700000D03*
X51837500Y-53900000D03*
X51837500Y-53100000D03*
M02*
