G04 #@! TF.GenerationSoftware,KiCad,Pcbnew,8.0.0*
G04 #@! TF.CreationDate,2024-03-01T08:43:16-05:00*
G04 #@! TF.ProjectId,Rosco-MiniHat-4Mb,526f7363-6f2d-44d6-996e-694861742d34,rev?*
G04 #@! TF.SameCoordinates,Original*
G04 #@! TF.FileFunction,Copper,L1,Top*
G04 #@! TF.FilePolarity,Positive*
%FSLAX46Y46*%
G04 Gerber Fmt 4.6, Leading zero omitted, Abs format (unit mm)*
G04 Created by KiCad (PCBNEW 8.0.0) date 2024-03-01 08:43:16*
%MOMM*%
%LPD*%
G01*
G04 APERTURE LIST*
G04 Aperture macros list*
%AMRoundRect*
0 Rectangle with rounded corners*
0 $1 Rounding radius*
0 $2 $3 $4 $5 $6 $7 $8 $9 X,Y pos of 4 corners*
0 Add a 4 corners polygon primitive as box body*
4,1,4,$2,$3,$4,$5,$6,$7,$8,$9,$2,$3,0*
0 Add four circle primitives for the rounded corners*
1,1,$1+$1,$2,$3*
1,1,$1+$1,$4,$5*
1,1,$1+$1,$6,$7*
1,1,$1+$1,$8,$9*
0 Add four rect primitives between the rounded corners*
20,1,$1+$1,$2,$3,$4,$5,0*
20,1,$1+$1,$4,$5,$6,$7,0*
20,1,$1+$1,$6,$7,$8,$9,0*
20,1,$1+$1,$8,$9,$2,$3,0*%
G04 Aperture macros list end*
G04 #@! TA.AperFunction,ComponentPad*
%ADD10R,1.700000X1.700000*%
G04 #@! TD*
G04 #@! TA.AperFunction,ComponentPad*
%ADD11O,1.700000X1.700000*%
G04 #@! TD*
G04 #@! TA.AperFunction,SMDPad,CuDef*
%ADD12RoundRect,0.250000X-0.475000X0.337500X-0.475000X-0.337500X0.475000X-0.337500X0.475000X0.337500X0*%
G04 #@! TD*
G04 #@! TA.AperFunction,SMDPad,CuDef*
%ADD13RoundRect,0.137500X-0.625000X-0.137500X0.625000X-0.137500X0.625000X0.137500X-0.625000X0.137500X0*%
G04 #@! TD*
G04 #@! TA.AperFunction,ComponentPad*
%ADD14R,1.600000X1.600000*%
G04 #@! TD*
G04 #@! TA.AperFunction,ComponentPad*
%ADD15O,1.600000X1.600000*%
G04 #@! TD*
G04 #@! TA.AperFunction,SMDPad,CuDef*
%ADD16RoundRect,0.250000X0.475000X-0.337500X0.475000X0.337500X-0.475000X0.337500X-0.475000X-0.337500X0*%
G04 #@! TD*
G04 #@! TA.AperFunction,SMDPad,CuDef*
%ADD17RoundRect,0.250000X0.337500X0.475000X-0.337500X0.475000X-0.337500X-0.475000X0.337500X-0.475000X0*%
G04 #@! TD*
G04 #@! TA.AperFunction,SMDPad,CuDef*
%ADD18RoundRect,0.150000X-0.825000X-0.150000X0.825000X-0.150000X0.825000X0.150000X-0.825000X0.150000X0*%
G04 #@! TD*
G04 #@! TA.AperFunction,ViaPad*
%ADD19C,0.700000*%
G04 #@! TD*
G04 #@! TA.AperFunction,Conductor*
%ADD20C,0.500000*%
G04 #@! TD*
G04 #@! TA.AperFunction,Conductor*
%ADD21C,0.250000*%
G04 #@! TD*
G04 APERTURE END LIST*
D10*
X58638000Y-52550000D03*
D11*
X58638000Y-55090000D03*
X58638000Y-57630000D03*
X58638000Y-60170000D03*
X58638000Y-62710000D03*
D12*
X37750000Y-60212500D03*
X37750000Y-62287500D03*
D13*
X40662500Y-73350000D03*
X40662500Y-74150000D03*
X40662500Y-74950000D03*
X40662500Y-75750000D03*
X40662500Y-76550000D03*
X40662500Y-77350000D03*
X40662500Y-78150000D03*
X40662500Y-78950000D03*
X40662500Y-79750000D03*
X40662500Y-80550000D03*
X40662500Y-81350000D03*
X40662500Y-82150000D03*
X40662500Y-82950000D03*
X40662500Y-83750000D03*
X40662500Y-84550000D03*
X40662500Y-85350000D03*
X40662500Y-86150000D03*
X40662500Y-86950000D03*
X40662500Y-87750000D03*
X40662500Y-88550000D03*
X40662500Y-89350000D03*
X40662500Y-90150000D03*
X51837500Y-90150000D03*
X51837500Y-89350000D03*
X51837500Y-88550000D03*
X51837500Y-87750000D03*
X51837500Y-86950000D03*
X51837500Y-86150000D03*
X51837500Y-85350000D03*
X51837500Y-84550000D03*
X51837500Y-83750000D03*
X51837500Y-82950000D03*
X51837500Y-82150000D03*
X51837500Y-81350000D03*
X51837500Y-80550000D03*
X51837500Y-79750000D03*
X51837500Y-78950000D03*
X51837500Y-78150000D03*
X51837500Y-77350000D03*
X51837500Y-76550000D03*
X51837500Y-75750000D03*
X51837500Y-74950000D03*
X51837500Y-74150000D03*
X51837500Y-73350000D03*
D14*
X111867000Y-52387000D03*
D15*
X111867000Y-54927000D03*
X111867000Y-57467000D03*
X111867000Y-60007000D03*
X111867000Y-62547000D03*
X111867000Y-65087000D03*
X111867000Y-67627000D03*
X111867000Y-70167000D03*
X111867000Y-72707000D03*
X111867000Y-75247000D03*
X111867000Y-77787000D03*
X111867000Y-80327000D03*
X111867000Y-82867000D03*
X111867000Y-85407000D03*
X111867000Y-87947000D03*
X111867000Y-90487000D03*
X127107000Y-90487000D03*
X127107000Y-87947000D03*
X127107000Y-85407000D03*
X127107000Y-82867000D03*
X127107000Y-80327000D03*
X127107000Y-77787000D03*
X127107000Y-75247000D03*
X127107000Y-72707000D03*
X127107000Y-70167000D03*
X127107000Y-67627000D03*
X127107000Y-65087000D03*
X127107000Y-62547000D03*
X127107000Y-60007000D03*
X127107000Y-57467000D03*
X127107000Y-54927000D03*
X127107000Y-52387000D03*
D16*
X83000000Y-62133000D03*
X83000000Y-60058000D03*
X83000000Y-82183500D03*
X83000000Y-80108500D03*
D13*
X69082500Y-53100000D03*
X69082500Y-53900000D03*
X69082500Y-54700000D03*
X69082500Y-55500000D03*
X69082500Y-56300000D03*
X69082500Y-57100000D03*
X69082500Y-57900000D03*
X69082500Y-58700000D03*
X69082500Y-59500000D03*
X69082500Y-60300000D03*
X69082500Y-61100000D03*
X69082500Y-61900000D03*
X69082500Y-62700000D03*
X69082500Y-63500000D03*
X69082500Y-64300000D03*
X69082500Y-65100000D03*
X69082500Y-65900000D03*
X69082500Y-66700000D03*
X69082500Y-67500000D03*
X69082500Y-68300000D03*
X69082500Y-69100000D03*
X69082500Y-69900000D03*
X80257500Y-69900000D03*
X80257500Y-69100000D03*
X80257500Y-68300000D03*
X80257500Y-67500000D03*
X80257500Y-66700000D03*
X80257500Y-65900000D03*
X80257500Y-65100000D03*
X80257500Y-64300000D03*
X80257500Y-63500000D03*
X80257500Y-62700000D03*
X80257500Y-61900000D03*
X80257500Y-61100000D03*
X80257500Y-60300000D03*
X80257500Y-59500000D03*
X80257500Y-58700000D03*
X80257500Y-57900000D03*
X80257500Y-57100000D03*
X80257500Y-56300000D03*
X80257500Y-55500000D03*
X80257500Y-54700000D03*
X80257500Y-53900000D03*
X80257500Y-53100000D03*
D16*
X54750000Y-81933500D03*
X54750000Y-79858500D03*
X54750000Y-61883000D03*
X54750000Y-59808000D03*
D14*
X87667000Y-52387000D03*
D15*
X87667000Y-54927000D03*
X87667000Y-57467000D03*
X87667000Y-60007000D03*
X87667000Y-62547000D03*
X87667000Y-65087000D03*
X87667000Y-67627000D03*
X87667000Y-70167000D03*
X87667000Y-72707000D03*
X87667000Y-75247000D03*
X87667000Y-77787000D03*
X87667000Y-80327000D03*
X87667000Y-82867000D03*
X87667000Y-85407000D03*
X87667000Y-87947000D03*
X87667000Y-90487000D03*
X102907000Y-90487000D03*
X102907000Y-87947000D03*
X102907000Y-85407000D03*
X102907000Y-82867000D03*
X102907000Y-80327000D03*
X102907000Y-77787000D03*
X102907000Y-75247000D03*
X102907000Y-72707000D03*
X102907000Y-70167000D03*
X102907000Y-67627000D03*
X102907000Y-65087000D03*
X102907000Y-62547000D03*
X102907000Y-60007000D03*
X102907000Y-57467000D03*
X102907000Y-54927000D03*
X102907000Y-52387000D03*
D12*
X66500000Y-80552000D03*
X66500000Y-82627000D03*
D17*
X61187500Y-66750000D03*
X59112500Y-66750000D03*
D12*
X66500000Y-60462500D03*
X66500000Y-62537500D03*
D18*
X57675000Y-69305000D03*
X57675000Y-70575000D03*
X57675000Y-71845000D03*
X57675000Y-73115000D03*
X57675000Y-74385000D03*
X57675000Y-75655000D03*
X57675000Y-76925000D03*
X57675000Y-78195000D03*
X62625000Y-78195000D03*
X62625000Y-76925000D03*
X62625000Y-75655000D03*
X62625000Y-74385000D03*
X62625000Y-73115000D03*
X62625000Y-71845000D03*
X62625000Y-70575000D03*
X62625000Y-69305000D03*
D13*
X69082500Y-73100000D03*
X69082500Y-73900000D03*
X69082500Y-74700000D03*
X69082500Y-75500000D03*
X69082500Y-76300000D03*
X69082500Y-77100000D03*
X69082500Y-77900000D03*
X69082500Y-78700000D03*
X69082500Y-79500000D03*
X69082500Y-80300000D03*
X69082500Y-81100000D03*
X69082500Y-81900000D03*
X69082500Y-82700000D03*
X69082500Y-83500000D03*
X69082500Y-84300000D03*
X69082500Y-85100000D03*
X69082500Y-85900000D03*
X69082500Y-86700000D03*
X69082500Y-87500000D03*
X69082500Y-88300000D03*
X69082500Y-89100000D03*
X69082500Y-89900000D03*
X80257500Y-89900000D03*
X80257500Y-89100000D03*
X80257500Y-88300000D03*
X80257500Y-87500000D03*
X80257500Y-86700000D03*
X80257500Y-85900000D03*
X80257500Y-85100000D03*
X80257500Y-84300000D03*
X80257500Y-83500000D03*
X80257500Y-82700000D03*
X80257500Y-81900000D03*
X80257500Y-81100000D03*
X80257500Y-80300000D03*
X80257500Y-79500000D03*
X80257500Y-78700000D03*
X80257500Y-77900000D03*
X80257500Y-77100000D03*
X80257500Y-76300000D03*
X80257500Y-75500000D03*
X80257500Y-74700000D03*
X80257500Y-73900000D03*
X80257500Y-73100000D03*
D12*
X37750000Y-80302000D03*
X37750000Y-82377000D03*
D13*
X40662500Y-53100000D03*
X40662500Y-53900000D03*
X40662500Y-54700000D03*
X40662500Y-55500000D03*
X40662500Y-56300000D03*
X40662500Y-57100000D03*
X40662500Y-57900000D03*
X40662500Y-58700000D03*
X40662500Y-59500000D03*
X40662500Y-60300000D03*
X40662500Y-61100000D03*
X40662500Y-61900000D03*
X40662500Y-62700000D03*
X40662500Y-63500000D03*
X40662500Y-64300000D03*
X40662500Y-65100000D03*
X40662500Y-65900000D03*
X40662500Y-66700000D03*
X40662500Y-67500000D03*
X40662500Y-68300000D03*
X40662500Y-69100000D03*
X40662500Y-69900000D03*
X51837500Y-69900000D03*
X51837500Y-69100000D03*
X51837500Y-68300000D03*
X51837500Y-67500000D03*
X51837500Y-66700000D03*
X51837500Y-65900000D03*
X51837500Y-65100000D03*
X51837500Y-64300000D03*
X51837500Y-63500000D03*
X51837500Y-62700000D03*
X51837500Y-61900000D03*
X51837500Y-61100000D03*
X51837500Y-60300000D03*
X51837500Y-59500000D03*
X51837500Y-58700000D03*
X51837500Y-57900000D03*
X51837500Y-57100000D03*
X51837500Y-56300000D03*
X51837500Y-55500000D03*
X51837500Y-54700000D03*
X51837500Y-53900000D03*
X51837500Y-53100000D03*
D19*
X78700000Y-56350000D03*
X37800000Y-79050000D03*
X83050000Y-83500000D03*
X66500000Y-59000000D03*
X50350000Y-56400000D03*
X82950000Y-63500000D03*
X50450000Y-76650000D03*
X78900000Y-76350000D03*
X62600000Y-66750000D03*
X66400000Y-79150000D03*
X54750000Y-83150000D03*
X37750000Y-58800000D03*
X54700000Y-63050000D03*
X82900000Y-58550000D03*
X57750000Y-66700000D03*
X37750000Y-83600000D03*
X66450000Y-84000000D03*
X66450000Y-63700000D03*
X54700000Y-78450000D03*
X37900000Y-63700000D03*
X54650000Y-58450000D03*
X83000000Y-78650000D03*
X43931300Y-66550200D03*
X38605900Y-73963900D03*
X72237300Y-82956700D03*
X67382300Y-67465700D03*
X38885900Y-85160000D03*
X60029200Y-70654900D03*
X56140800Y-70575000D03*
X55872700Y-68355200D03*
X77510100Y-63637100D03*
X67666600Y-68544600D03*
X71301400Y-85055700D03*
X43391300Y-86486000D03*
X39308800Y-68065600D03*
X66954300Y-69108000D03*
X77691700Y-66670500D03*
X60837900Y-89060800D03*
X47453000Y-70205600D03*
X42177100Y-88752800D03*
X42020800Y-75086500D03*
X81572900Y-69424100D03*
X91159000Y-90969800D03*
X49136200Y-80326700D03*
X53708500Y-76049400D03*
X89647700Y-70736700D03*
X85775200Y-86916600D03*
X83086000Y-68200700D03*
X47597700Y-77279200D03*
X55032800Y-75009500D03*
X96767600Y-76340800D03*
X53977900Y-54644300D03*
X82679200Y-73997500D03*
X72329500Y-54618600D03*
X81788900Y-73480700D03*
X73033100Y-53900000D03*
X54520400Y-53900000D03*
X50978100Y-71984100D03*
X49596700Y-71324800D03*
X70828600Y-74584000D03*
X82479200Y-72829200D03*
X66399400Y-73085700D03*
X42336200Y-53218900D03*
X42760200Y-71228800D03*
X43038000Y-72485300D03*
X39338400Y-53716700D03*
X59936400Y-73742500D03*
X41187700Y-71341100D03*
X66819100Y-74700000D03*
X73386600Y-58170600D03*
X39346900Y-54701600D03*
X78395100Y-72402500D03*
X78525000Y-74609800D03*
X73279000Y-59076500D03*
X45667100Y-72421100D03*
X78126300Y-75624000D03*
X64616000Y-73744700D03*
X41977600Y-56300000D03*
X71955700Y-59591400D03*
X72500800Y-63736400D03*
X48714800Y-61338300D03*
X70730900Y-62712500D03*
X70442700Y-64489300D03*
X48714800Y-62525600D03*
X65419300Y-61645800D03*
X45448500Y-63202500D03*
X70524400Y-65906100D03*
X54479700Y-64860100D03*
X85046900Y-91885600D03*
X85397600Y-84987100D03*
X73122500Y-62586500D03*
X53424300Y-62754000D03*
X78940800Y-60300000D03*
X53168900Y-60061400D03*
X72068000Y-56073100D03*
X81584500Y-59500000D03*
X63736500Y-58900000D03*
X105199100Y-80630100D03*
X78668100Y-69100000D03*
X82977100Y-76191200D03*
X44785100Y-63879400D03*
X48714800Y-63879400D03*
X74409700Y-67522000D03*
X86530400Y-84567200D03*
X72972400Y-89791200D03*
X53154600Y-66700000D03*
X56141000Y-90683000D03*
X48040600Y-68354800D03*
X70712700Y-54697400D03*
X82239100Y-75065800D03*
X53181600Y-55613600D03*
X84074800Y-64697600D03*
X84434500Y-87559400D03*
X75885500Y-89285500D03*
X53525600Y-87824000D03*
X71431100Y-67918500D03*
X75690200Y-86252300D03*
X55885900Y-65951000D03*
X78769900Y-57557200D03*
X54302400Y-76868500D03*
X70440100Y-77100000D03*
X96285900Y-73389800D03*
X81929900Y-76419700D03*
X89842600Y-89100000D03*
X64127900Y-71341700D03*
X86279200Y-70854800D03*
X53448300Y-70190100D03*
X78099400Y-64323300D03*
X73613300Y-84581700D03*
X39346600Y-69109700D03*
X86073000Y-53800100D03*
X43206600Y-88310000D03*
X59144500Y-88300000D03*
X70433200Y-68300000D03*
X72927800Y-86237000D03*
X70999900Y-69900000D03*
X78611100Y-66752600D03*
X39445600Y-72166700D03*
X60360100Y-89873300D03*
X42290700Y-89678600D03*
X75792000Y-71200400D03*
X94595000Y-77171700D03*
X53822500Y-83328900D03*
X75515900Y-79500000D03*
X46085300Y-79750000D03*
X70402000Y-82539100D03*
X75515900Y-81267500D03*
X45177000Y-80550000D03*
X82796600Y-92328100D03*
X65861800Y-84718000D03*
X45884500Y-82950000D03*
X44588200Y-83750000D03*
X67341300Y-85396500D03*
X71105600Y-81962500D03*
X50521700Y-79939100D03*
X70693400Y-80256800D03*
X53163700Y-79750000D03*
X48714800Y-65181900D03*
X61974300Y-61002600D03*
X74470900Y-52174600D03*
X48850900Y-81228700D03*
X48978300Y-77459700D03*
X56531800Y-83375900D03*
X66890800Y-57100000D03*
X61127200Y-62457900D03*
X54965200Y-65650600D03*
X55163900Y-67644400D03*
X42239200Y-57969300D03*
X54164700Y-71336000D03*
X56030200Y-78980100D03*
X50490700Y-78578600D03*
D20*
X78700000Y-56350000D02*
X80207500Y-56350000D01*
X54700000Y-63050000D02*
X54700000Y-61933000D01*
X38637500Y-61100000D02*
X40662500Y-61100000D01*
X37750000Y-58800000D02*
X37750000Y-60212500D01*
X51854500Y-61883000D02*
X51837500Y-61900000D01*
X50450000Y-56300000D02*
X50350000Y-56400000D01*
X37800000Y-79050000D02*
X37800000Y-80252000D01*
X37750000Y-60212500D02*
X38637500Y-61100000D01*
X66500000Y-60462500D02*
X67137500Y-61100000D01*
X83050000Y-83500000D02*
X83050000Y-82233500D01*
X80207500Y-76350000D02*
X80257500Y-76300000D01*
X67137500Y-61100000D02*
X69082500Y-61100000D01*
X83000000Y-62133000D02*
X82767000Y-61900000D01*
X67048000Y-81100000D02*
X69082500Y-81100000D01*
X66400000Y-79150000D02*
X66400000Y-80452000D01*
X50550000Y-76550000D02*
X51837500Y-76550000D01*
X37800000Y-80252000D02*
X37750000Y-80302000D01*
X66500000Y-80552000D02*
X67048000Y-81100000D01*
X82950000Y-62183000D02*
X83000000Y-62133000D01*
X62600000Y-66750000D02*
X61187500Y-66750000D01*
X38798000Y-81350000D02*
X40662500Y-81350000D01*
X54750000Y-61883000D02*
X51854500Y-61883000D01*
X83050000Y-82233500D02*
X83000000Y-82183500D01*
X54750000Y-81933500D02*
X54533500Y-82150000D01*
X54700000Y-61933000D02*
X54750000Y-61883000D01*
X61187500Y-67867500D02*
X62625000Y-69305000D01*
X80207500Y-56350000D02*
X80257500Y-56300000D01*
X51837500Y-56300000D02*
X50450000Y-56300000D01*
X78900000Y-76350000D02*
X80207500Y-76350000D01*
X50450000Y-76650000D02*
X50550000Y-76550000D01*
X54533500Y-82150000D02*
X51837500Y-82150000D01*
X82716500Y-81900000D02*
X80257500Y-81900000D01*
X82950000Y-63500000D02*
X82950000Y-62183000D01*
X61187500Y-66750000D02*
X61187500Y-67867500D01*
X66500000Y-59000000D02*
X66500000Y-60462500D01*
X83000000Y-82183500D02*
X82716500Y-81900000D01*
X82767000Y-61900000D02*
X80257500Y-61900000D01*
X37750000Y-80302000D02*
X38798000Y-81350000D01*
X66400000Y-80452000D02*
X66500000Y-80552000D01*
X54750000Y-83150000D02*
X54750000Y-81933500D01*
X37750000Y-62287500D02*
X38137500Y-61900000D01*
X53258500Y-81350000D02*
X51837500Y-81350000D01*
X83000000Y-60058000D02*
X81958000Y-61100000D01*
X66500000Y-82627000D02*
X67227000Y-81900000D01*
X83000000Y-80108500D02*
X82008500Y-81100000D01*
X67227000Y-81900000D02*
X69082500Y-81900000D01*
X66500000Y-62537500D02*
X67137500Y-61900000D01*
X54750000Y-79858500D02*
X53258500Y-81350000D01*
X81958000Y-61100000D02*
X80257500Y-61100000D01*
X83000000Y-78650000D02*
X83000000Y-80108500D01*
X54700000Y-78450000D02*
X54700000Y-79808500D01*
X82008500Y-81100000D02*
X80257500Y-81100000D01*
X37750000Y-82377000D02*
X37977000Y-82150000D01*
X66450000Y-63700000D02*
X66450000Y-62587500D01*
X59112500Y-66750000D02*
X59112500Y-77732500D01*
X82900000Y-59958000D02*
X83000000Y-60058000D01*
X54650000Y-59708000D02*
X54750000Y-59808000D01*
X82900000Y-58550000D02*
X82900000Y-59958000D01*
X57750000Y-66700000D02*
X59062500Y-66700000D01*
X59112500Y-77732500D02*
X58650000Y-78195000D01*
X67137500Y-61900000D02*
X69082500Y-61900000D01*
X53458000Y-61100000D02*
X51837500Y-61100000D01*
X37750000Y-83600000D02*
X37750000Y-82377000D01*
X59062500Y-66700000D02*
X59112500Y-66750000D01*
X37900000Y-63700000D02*
X37900000Y-62437500D01*
X66450000Y-82677000D02*
X66500000Y-82627000D01*
X66450000Y-62587500D02*
X66500000Y-62537500D01*
X37977000Y-82150000D02*
X40662500Y-82150000D01*
X38137500Y-61900000D02*
X40662500Y-61900000D01*
X66450000Y-84000000D02*
X66450000Y-82677000D01*
X54700000Y-79808500D02*
X54750000Y-79858500D01*
X37900000Y-62437500D02*
X37750000Y-62287500D01*
X58650000Y-78195000D02*
X57675000Y-78195000D01*
X54750000Y-59808000D02*
X53458000Y-61100000D01*
X54650000Y-58450000D02*
X54650000Y-59708000D01*
D21*
X67382300Y-67465700D02*
X67110600Y-67465700D01*
X67110600Y-67465700D02*
X59814900Y-60170000D01*
X39649100Y-66700000D02*
X40662500Y-66700000D01*
X69082500Y-66700000D02*
X68148000Y-66700000D01*
X40662500Y-66700000D02*
X43781500Y-66700000D01*
X70210900Y-84983100D02*
X70210900Y-86262800D01*
X38605900Y-67743200D02*
X39649100Y-66700000D01*
X38885900Y-85160000D02*
X38885900Y-85834900D01*
X72237300Y-82956700D02*
X70210900Y-84983100D01*
X43781500Y-66700000D02*
X43931300Y-66550200D01*
X38605900Y-73963900D02*
X38605900Y-67743200D01*
X68148000Y-66700000D02*
X67382300Y-67465700D01*
X70210900Y-86262800D02*
X69773700Y-86700000D01*
X38885900Y-85834900D02*
X40001000Y-86950000D01*
X69773700Y-86700000D02*
X69082500Y-86700000D01*
X58638000Y-60170000D02*
X59814900Y-60170000D01*
X40001000Y-86950000D02*
X40662500Y-86950000D01*
X62625000Y-71845000D02*
X61219300Y-71845000D01*
X61219300Y-71845000D02*
X60029200Y-70654900D01*
X56140800Y-68623300D02*
X55872700Y-68355200D01*
X57675000Y-70575000D02*
X57675000Y-71845000D01*
X57675000Y-70575000D02*
X56140800Y-70575000D01*
X62625000Y-71845000D02*
X62625000Y-73115000D01*
X56140800Y-70575000D02*
X56140800Y-68623300D01*
X69082500Y-67500000D02*
X70033300Y-67500000D01*
X39308800Y-68065600D02*
X39874400Y-67500000D01*
X71301400Y-85910200D02*
X71301400Y-85055700D01*
X69082500Y-67500000D02*
X68432000Y-67500000D01*
X69711600Y-87500000D02*
X71301400Y-85910200D01*
X70033300Y-67500000D02*
X72668100Y-64865200D01*
X42324900Y-87552400D02*
X40860100Y-87552400D01*
X69082500Y-87500000D02*
X69711600Y-87500000D01*
X67666600Y-68265400D02*
X67666600Y-68544600D01*
X39874400Y-67500000D02*
X40662500Y-67500000D01*
X68432000Y-67500000D02*
X67666600Y-68265400D01*
X43391300Y-86486000D02*
X42324900Y-87552400D01*
X72968400Y-64865200D02*
X74196400Y-63637200D01*
X77510100Y-63637200D02*
X77510100Y-63637100D01*
X72668100Y-64865200D02*
X72968400Y-64865200D01*
X40860100Y-87552400D02*
X40662500Y-87750000D01*
X74196400Y-63637200D02*
X77510100Y-63637200D01*
X43767600Y-73339700D02*
X43767600Y-70349500D01*
X69043300Y-89060800D02*
X60837900Y-89060800D01*
X42020800Y-75086500D02*
X43767600Y-73339700D01*
X43767600Y-70349500D02*
X42518100Y-69100000D01*
X69082500Y-69100000D02*
X73789000Y-69100000D01*
X47453000Y-70205600D02*
X43911500Y-70205600D01*
X69082500Y-89100000D02*
X69043300Y-89060800D01*
X69082500Y-69100000D02*
X68921900Y-69260600D01*
X41579900Y-89350000D02*
X42177100Y-88752800D01*
X42518100Y-69100000D02*
X40662500Y-69100000D01*
X68921900Y-69260600D02*
X67106900Y-69260600D01*
X40662500Y-89350000D02*
X41579900Y-89350000D01*
X67106900Y-69260600D02*
X66954300Y-69108000D01*
X73789000Y-69100000D02*
X76218500Y-66670500D01*
X76218500Y-66670500D02*
X77691700Y-66670500D01*
X43911500Y-70205600D02*
X43767600Y-70349500D01*
X53865000Y-75892900D02*
X53708500Y-76049400D01*
X51837500Y-69968800D02*
X53865000Y-71996300D01*
X91159000Y-90969800D02*
X90502800Y-91626000D01*
X85922400Y-91626000D02*
X84196400Y-89900000D01*
X77232400Y-92925100D02*
X54612600Y-92925100D01*
X51189500Y-90150000D02*
X51837500Y-90150000D01*
X84196400Y-89900000D02*
X80257500Y-89900000D01*
X80257500Y-69900000D02*
X81097000Y-69900000D01*
X53865000Y-71996300D02*
X53865000Y-75892900D01*
X51837500Y-69900000D02*
X51837500Y-69968800D01*
X49136200Y-80328900D02*
X49596600Y-80789300D01*
X49136200Y-80326700D02*
X49136200Y-80328900D01*
X49596600Y-88557100D02*
X51189500Y-90150000D01*
X80257500Y-89900000D02*
X77232400Y-92925100D01*
X81097000Y-69900000D02*
X81572900Y-69424100D01*
X49596600Y-80789300D02*
X49596600Y-88557100D01*
X90502800Y-91626000D02*
X85922400Y-91626000D01*
X54612600Y-92925100D02*
X51837500Y-90150000D01*
X53050800Y-88550000D02*
X51837500Y-88550000D01*
X80257500Y-88300000D02*
X78387200Y-88300000D01*
X51837500Y-88550000D02*
X51157200Y-88550000D01*
X49843900Y-80397500D02*
X49843900Y-80034000D01*
X74721500Y-91965700D02*
X56466500Y-91965700D01*
X83086000Y-68200700D02*
X80356800Y-68200700D01*
X49843900Y-80034000D02*
X47597700Y-77787800D01*
X84657500Y-88300000D02*
X80257500Y-88300000D01*
X50069200Y-80622800D02*
X49843900Y-80397500D01*
X85775200Y-86916600D02*
X85775200Y-87182300D01*
X54934700Y-70697600D02*
X54934700Y-74911400D01*
X56466500Y-91965700D02*
X53050800Y-88550000D01*
X80356800Y-68200700D02*
X80257500Y-68300000D01*
X52537100Y-68300000D02*
X54934700Y-70697600D01*
X51837500Y-68300000D02*
X52537100Y-68300000D01*
X54934700Y-74911400D02*
X55032800Y-75009500D01*
X96767600Y-76340800D02*
X95251800Y-76340800D01*
X78387200Y-88300000D02*
X74721500Y-91965700D01*
X95251800Y-76340800D02*
X89647700Y-70736700D01*
X51157200Y-88550000D02*
X50069200Y-87462000D01*
X50069200Y-87462000D02*
X50069200Y-80622800D01*
X47597700Y-77787800D02*
X47597700Y-77279200D01*
X85775200Y-87182300D02*
X84657500Y-88300000D01*
X49658400Y-57489300D02*
X50295600Y-58126500D01*
X81714200Y-74350400D02*
X81364600Y-74700000D01*
X82326300Y-74350400D02*
X81714200Y-74350400D01*
X87475200Y-61420100D02*
X81418100Y-55363000D01*
X49658400Y-56119700D02*
X49658400Y-57489300D01*
X82679200Y-73997500D02*
X82326300Y-74350400D01*
X52961200Y-73009800D02*
X52961200Y-74453700D01*
X81418100Y-55363000D02*
X81418100Y-55222700D01*
X81364600Y-74700000D02*
X80257500Y-74700000D01*
X51078100Y-54700000D02*
X49658400Y-56119700D01*
X80257500Y-54700000D02*
X72410900Y-54700000D01*
X72410900Y-54700000D02*
X72329500Y-54618600D01*
X80895400Y-54700000D02*
X80257500Y-54700000D01*
X50295600Y-58126500D02*
X50295600Y-70427300D01*
X52464900Y-74950000D02*
X51837500Y-74950000D01*
X87667000Y-61420100D02*
X87475200Y-61420100D01*
X87667000Y-62547000D02*
X87667000Y-61420100D01*
X51192600Y-71241200D02*
X52961200Y-73009800D01*
X81418100Y-55222700D02*
X80895400Y-54700000D01*
X51893200Y-54644300D02*
X53977900Y-54644300D01*
X50295600Y-70427300D02*
X51109500Y-71241200D01*
X51837500Y-54700000D02*
X51893200Y-54644300D01*
X51109500Y-71241200D02*
X51192600Y-71241200D01*
X52961200Y-74453700D02*
X52464900Y-74950000D01*
X51837500Y-54700000D02*
X51078100Y-54700000D01*
X87667000Y-63960100D02*
X87948700Y-63960100D01*
X54520400Y-53900000D02*
X51837500Y-53900000D01*
X87948700Y-63960100D02*
X88833500Y-63075300D01*
X51837500Y-53900000D02*
X51204300Y-53900000D01*
X49206500Y-55897800D02*
X49206500Y-59479700D01*
X49206500Y-59479700D02*
X49843700Y-60116900D01*
X49843700Y-70614500D02*
X50301200Y-71072000D01*
X51217500Y-74150000D02*
X51837500Y-74150000D01*
X88833500Y-59531700D02*
X88008900Y-58707100D01*
X87667000Y-65087000D02*
X87667000Y-63960100D01*
X85684600Y-58707100D02*
X80877500Y-53900000D01*
X51204300Y-53900000D02*
X49206500Y-55897800D01*
X88833500Y-63075300D02*
X88833500Y-59531700D01*
X80257500Y-73900000D02*
X81369600Y-73900000D01*
X49843700Y-60116900D02*
X49843700Y-70614500D01*
X80257500Y-53900000D02*
X73033100Y-53900000D01*
X50301200Y-73233700D02*
X51217500Y-74150000D01*
X81369600Y-73900000D02*
X81788900Y-73480700D01*
X88008900Y-58707100D02*
X85684600Y-58707100D01*
X80877500Y-53900000D02*
X80257500Y-53900000D01*
X50301200Y-71072000D02*
X50301200Y-73233700D01*
X103364400Y-68801600D02*
X104058600Y-68107400D01*
X48754600Y-59768200D02*
X49391800Y-60405400D01*
X51146600Y-53100000D02*
X48754600Y-55492000D01*
X49391800Y-60405400D02*
X49391800Y-71119900D01*
X80605200Y-72752300D02*
X80257500Y-73100000D01*
X51837500Y-53100000D02*
X51146600Y-53100000D01*
X76531900Y-74584000D02*
X70828600Y-74584000D01*
X78015900Y-73100000D02*
X76531900Y-74584000D01*
X104058600Y-67117400D02*
X103298200Y-66357000D01*
X82402300Y-72752300D02*
X80605200Y-72752300D01*
X92123100Y-56338300D02*
X84174700Y-56338300D01*
X82479200Y-72829200D02*
X82402300Y-72752300D01*
X84174700Y-56338300D02*
X80936400Y-53100000D01*
X51837500Y-72843500D02*
X51837500Y-73350000D01*
X50978100Y-71984100D02*
X51837500Y-72843500D01*
X102141800Y-66357000D02*
X92123100Y-56338300D01*
X87667000Y-67627000D02*
X88793900Y-67627000D01*
X48754600Y-55492000D02*
X48754600Y-59768200D01*
X80936400Y-53100000D02*
X80257500Y-53100000D01*
X103298200Y-66357000D02*
X102141800Y-66357000D01*
X80257500Y-73100000D02*
X78015900Y-73100000D01*
X89968500Y-68801600D02*
X103364400Y-68801600D01*
X104058600Y-68107400D02*
X104058600Y-67117400D01*
X49391800Y-71119900D02*
X49596700Y-71324800D01*
X88793900Y-67627000D02*
X89968500Y-68801600D01*
X40662500Y-73326500D02*
X42760200Y-71228800D01*
X42217300Y-53100000D02*
X40662500Y-53100000D01*
X66893700Y-50911200D02*
X44643900Y-50911200D01*
X87667000Y-70167000D02*
X87667000Y-71293900D01*
X42336200Y-53218900D02*
X42217300Y-53100000D01*
X85533900Y-71246000D02*
X85854600Y-71566700D01*
X69082500Y-73085700D02*
X66399400Y-73085700D01*
X44643900Y-50911200D02*
X42336200Y-53218900D01*
X69082500Y-53100000D02*
X66893700Y-50911200D01*
X69082500Y-73100000D02*
X69082500Y-73085700D01*
X87394200Y-71566700D02*
X87667000Y-71293900D01*
X75817500Y-72771300D02*
X77342800Y-71246000D01*
X69396900Y-72771300D02*
X75817500Y-72771300D01*
X40662500Y-73350000D02*
X40662500Y-73326500D01*
X85854600Y-71566700D02*
X87394200Y-71566700D01*
X69082500Y-73085700D02*
X69396900Y-72771300D01*
X77342800Y-71246000D02*
X85533900Y-71246000D01*
X63657500Y-73742500D02*
X59936400Y-73742500D01*
X70324300Y-73453000D02*
X75774900Y-73453000D01*
X77530000Y-71697900D02*
X83199600Y-71697900D01*
X59638700Y-51373100D02*
X45758300Y-51373100D01*
X84208700Y-72707000D02*
X86540100Y-72707000D01*
X39521700Y-53900000D02*
X39338400Y-53716700D01*
X45758300Y-51373100D02*
X43231400Y-53900000D01*
X66231200Y-73900000D02*
X65383700Y-73052500D01*
X69082500Y-73900000D02*
X66231200Y-73900000D01*
X41373300Y-74150000D02*
X40662500Y-74150000D01*
X69877300Y-73900000D02*
X70324300Y-73453000D01*
X43231400Y-53900000D02*
X40662500Y-53900000D01*
X64347500Y-73052500D02*
X63657500Y-73742500D01*
X69082500Y-73900000D02*
X69877300Y-73900000D01*
X65383700Y-73052500D02*
X64347500Y-73052500D01*
X62165600Y-53900000D02*
X59638700Y-51373100D01*
X83199600Y-71697900D02*
X84208700Y-72707000D01*
X43038000Y-72485300D02*
X41373300Y-74150000D01*
X87667000Y-72707000D02*
X86540100Y-72707000D01*
X69082500Y-53900000D02*
X62165600Y-53900000D01*
X40662500Y-53900000D02*
X39521700Y-53900000D01*
X75774900Y-73453000D02*
X77530000Y-71697900D01*
X69755400Y-74700000D02*
X69082500Y-74700000D01*
X76253500Y-73904900D02*
X70550500Y-73904900D01*
X40662500Y-74950000D02*
X39982200Y-74950000D01*
X70550500Y-73904900D02*
X69755400Y-74700000D01*
X69735900Y-54700000D02*
X69082500Y-54700000D01*
X78645300Y-72152300D02*
X78395100Y-72402500D01*
X73206500Y-58170600D02*
X69735900Y-54700000D01*
X40662500Y-54700000D02*
X39348500Y-54700000D01*
X39348500Y-54700000D02*
X39346900Y-54701600D01*
X39572600Y-72997000D02*
X41187700Y-71381900D01*
X41187700Y-71381900D02*
X41187700Y-71341100D01*
X73386600Y-58170600D02*
X73206500Y-58170600D01*
X39572600Y-74540400D02*
X39572600Y-72997000D01*
X39982200Y-74950000D02*
X39572600Y-74540400D01*
X77755900Y-72402500D02*
X76253500Y-73904900D01*
X86540100Y-75247000D02*
X85854300Y-75247000D01*
X87667000Y-75247000D02*
X86540100Y-75247000D01*
X69082500Y-74700000D02*
X66819100Y-74700000D01*
X82759600Y-72152300D02*
X78645300Y-72152300D01*
X85854300Y-75247000D02*
X82759600Y-72152300D01*
X78395100Y-72402500D02*
X77755900Y-72402500D01*
X76584100Y-75500000D02*
X69082500Y-75500000D01*
X40662500Y-55500000D02*
X43264200Y-55500000D01*
X61690100Y-55500000D02*
X69082500Y-55500000D01*
X40662500Y-55500000D02*
X39976400Y-55500000D01*
X78525000Y-74609800D02*
X77474300Y-74609800D01*
X43264200Y-55500000D02*
X46751700Y-52012500D01*
X39976400Y-55500000D02*
X36667000Y-58809400D01*
X55800200Y-52012500D02*
X57514600Y-53726900D01*
X59917000Y-53726900D02*
X61690100Y-55500000D01*
X77474300Y-74609800D02*
X76584100Y-75500000D01*
X36667000Y-58809400D02*
X36667000Y-72982200D01*
X57514600Y-53726900D02*
X59917000Y-53726900D01*
X39434800Y-75750000D02*
X40662500Y-75750000D01*
X36667000Y-72982200D02*
X39434800Y-75750000D01*
X69082500Y-55500000D02*
X69702500Y-55500000D01*
X46751700Y-52012500D02*
X55800200Y-52012500D01*
X69702500Y-55500000D02*
X73279000Y-59076500D01*
X69702500Y-56300000D02*
X69082500Y-56300000D01*
X71955700Y-59591400D02*
X71955700Y-58553200D01*
X40662500Y-76550000D02*
X41538200Y-76550000D01*
X64616000Y-73744700D02*
X67171300Y-76300000D01*
X77450300Y-76300000D02*
X69082500Y-76300000D01*
X40662500Y-56300000D02*
X41977600Y-56300000D01*
X71955700Y-58553200D02*
X69702500Y-56300000D01*
X67171300Y-76300000D02*
X69082500Y-76300000D01*
X41538200Y-76550000D02*
X45667100Y-72421100D01*
X78126300Y-75624000D02*
X77450300Y-76300000D01*
X69778800Y-59500000D02*
X69082500Y-59500000D01*
X58124500Y-56266900D02*
X54323400Y-52465800D01*
X54323400Y-52465800D02*
X50457100Y-52465800D01*
X68317500Y-59500000D02*
X65084400Y-56266900D01*
X71950600Y-61671800D02*
X69778800Y-59500000D01*
X50457100Y-52465800D02*
X43422900Y-59500000D01*
X72500800Y-63736400D02*
X71950600Y-63186200D01*
X65084400Y-56266900D02*
X58124500Y-56266900D01*
X69082500Y-59500000D02*
X68317500Y-59500000D01*
X71950600Y-63186200D02*
X71950600Y-61671800D01*
X43422900Y-59500000D02*
X40662500Y-59500000D01*
X40662500Y-60300000D02*
X47676500Y-60300000D01*
X47676500Y-60300000D02*
X48714800Y-61338300D01*
X69082500Y-60300000D02*
X69702500Y-60300000D01*
X69702500Y-60300000D02*
X70730900Y-61328400D01*
X70730900Y-61328400D02*
X70730900Y-62712500D01*
X69714000Y-62700000D02*
X69082500Y-62700000D01*
X70442700Y-63428700D02*
X69714000Y-62700000D01*
X40836900Y-62525600D02*
X48714800Y-62525600D01*
X70442700Y-64489300D02*
X70442700Y-63428700D01*
X40662500Y-62700000D02*
X40836900Y-62525600D01*
X66911600Y-64412200D02*
X66147000Y-64412200D01*
X45448500Y-63202500D02*
X44191400Y-63202500D01*
X69082500Y-63500000D02*
X67823800Y-63500000D01*
X66147000Y-64412200D02*
X65419300Y-63684500D01*
X43893900Y-63500000D02*
X40662500Y-63500000D01*
X65419300Y-63684500D02*
X65419300Y-61645800D01*
X67823800Y-63500000D02*
X66911600Y-64412200D01*
X44191400Y-63202500D02*
X43893900Y-63500000D01*
X51837500Y-63500000D02*
X53119600Y-63500000D01*
X53119600Y-63500000D02*
X54479700Y-64860100D01*
X72781200Y-64413300D02*
X72017200Y-64413300D01*
X80257500Y-63500000D02*
X78330300Y-63500000D01*
X78330300Y-63500000D02*
X77790500Y-62960200D01*
X101780100Y-87947000D02*
X97609300Y-92117800D01*
X77790500Y-62960200D02*
X74234300Y-62960200D01*
X102907000Y-87947000D02*
X101780100Y-87947000D01*
X74234300Y-62960200D02*
X72781200Y-64413300D01*
X85279100Y-92117800D02*
X85046900Y-91885600D01*
X97609300Y-92117800D02*
X85279100Y-92117800D01*
X72017200Y-64413300D02*
X70524400Y-65906100D01*
X73200700Y-62508300D02*
X73122500Y-62586500D01*
X80257500Y-62700000D02*
X80065800Y-62508300D01*
X53424300Y-62754000D02*
X51891500Y-62754000D01*
X51891500Y-62754000D02*
X51837500Y-62700000D01*
X80065800Y-62508300D02*
X73200700Y-62508300D01*
X101780100Y-85407000D02*
X100653200Y-86533900D01*
X102907000Y-85407000D02*
X101780100Y-85407000D01*
X100653200Y-86533900D02*
X86944400Y-86533900D01*
X86944400Y-86533900D02*
X85397600Y-84987100D01*
X52930300Y-60300000D02*
X51837500Y-60300000D01*
X53168900Y-60061400D02*
X52930300Y-60300000D01*
X80257500Y-60300000D02*
X78940800Y-60300000D01*
X104896000Y-80327000D02*
X105199100Y-80630100D01*
X72546300Y-56073100D02*
X72068000Y-56073100D01*
X56211300Y-57749300D02*
X57362000Y-58900000D01*
X81584500Y-59500000D02*
X80257500Y-59500000D01*
X75973200Y-59500000D02*
X72546300Y-56073100D01*
X52615300Y-59500000D02*
X54366000Y-57749300D01*
X54366000Y-57749300D02*
X56211300Y-57749300D01*
X51837500Y-59500000D02*
X52615300Y-59500000D01*
X80257500Y-59500000D02*
X75973200Y-59500000D01*
X102907000Y-80327000D02*
X104896000Y-80327000D01*
X57362000Y-58900000D02*
X63736500Y-58900000D01*
X57675000Y-69305000D02*
X57057000Y-68687000D01*
X102907000Y-77787000D02*
X101780100Y-77787000D01*
X101703300Y-77863800D02*
X93165700Y-77863800D01*
X61536400Y-69936800D02*
X65659500Y-69936800D01*
X60216300Y-66217900D02*
X60216300Y-68616700D01*
X76468700Y-69100000D02*
X78668100Y-69100000D01*
X91955000Y-76653100D02*
X83439000Y-76653100D01*
X93165700Y-77863800D02*
X91955000Y-76653100D01*
X74529500Y-71039200D02*
X76468700Y-69100000D01*
X66761900Y-71039200D02*
X74529500Y-71039200D01*
X57771100Y-65691100D02*
X59689500Y-65691100D01*
X57057000Y-68687000D02*
X57057000Y-66405200D01*
X57057000Y-66405200D02*
X57771100Y-65691100D01*
X59689500Y-65691100D02*
X60216300Y-66217900D01*
X83439000Y-76653100D02*
X82977100Y-76191200D01*
X60216300Y-68616700D02*
X61536400Y-69936800D01*
X101780100Y-77787000D02*
X101703300Y-77863800D01*
X65659500Y-69936800D02*
X66761900Y-71039200D01*
X53612400Y-86950000D02*
X56141000Y-89478600D01*
X51837500Y-86950000D02*
X53612400Y-86950000D01*
X80257500Y-86700000D02*
X76444500Y-86700000D01*
X73353300Y-89791200D02*
X72972400Y-89791200D01*
X76444500Y-86700000D02*
X73353300Y-89791200D01*
X79614900Y-66700000D02*
X78880900Y-65966000D01*
X51837500Y-66700000D02*
X53154600Y-66700000D01*
X56141000Y-89478600D02*
X56141000Y-90683000D01*
X86530400Y-84567200D02*
X86273400Y-84310200D01*
X44785100Y-63879400D02*
X48714800Y-63879400D01*
X84820000Y-84310200D02*
X82430200Y-86700000D01*
X80257500Y-66700000D02*
X79614900Y-66700000D01*
X82430200Y-86700000D02*
X80257500Y-86700000D01*
X75965700Y-65966000D02*
X74409700Y-67522000D01*
X78880900Y-65966000D02*
X75965700Y-65966000D01*
X86273400Y-84310200D02*
X84820000Y-84310200D01*
X51178500Y-75750000D02*
X51837500Y-75750000D01*
X80898800Y-55500000D02*
X80257500Y-55500000D01*
X84074800Y-64697600D02*
X84074800Y-58676000D01*
X53181600Y-55613600D02*
X51951100Y-55613600D01*
X71361100Y-55345800D02*
X70712700Y-54697400D01*
X80257500Y-55500000D02*
X80103300Y-55345800D01*
X51951100Y-55613600D02*
X51837500Y-55500000D01*
X80257500Y-75500000D02*
X81804900Y-75500000D01*
X84074800Y-58676000D02*
X80898800Y-55500000D01*
X48623700Y-73195200D02*
X51178500Y-75750000D01*
X81804900Y-75500000D02*
X82239100Y-75065800D01*
X48623700Y-68937900D02*
X48623700Y-73195200D01*
X48040600Y-68354800D02*
X48623700Y-68937900D01*
X80103300Y-55345800D02*
X71361100Y-55345800D01*
X51837500Y-67500000D02*
X54205300Y-67500000D01*
X80257500Y-67500100D02*
X80257500Y-67500000D01*
X54205300Y-67500000D02*
X54925800Y-66779500D01*
X77671000Y-87500000D02*
X75885500Y-89285500D01*
X74342300Y-70587300D02*
X76494600Y-68435000D01*
X85072000Y-69002600D02*
X83569400Y-67500000D01*
X57555000Y-65239200D02*
X62128100Y-65239200D01*
X101780100Y-70167000D02*
X90473400Y-70167000D01*
X54925800Y-66779500D02*
X56014700Y-66779500D01*
X89309000Y-69002600D02*
X85072000Y-69002600D01*
X56014700Y-66779500D02*
X57555000Y-65239200D01*
X80316900Y-87559400D02*
X84434500Y-87559400D01*
X51911500Y-87824000D02*
X51837500Y-87750000D01*
X78045800Y-68435000D02*
X78980700Y-67500100D01*
X62128100Y-65239200D02*
X67476200Y-70587300D01*
X80257500Y-87500000D02*
X77671000Y-87500000D01*
X90473400Y-70167000D02*
X89309000Y-69002600D01*
X53525600Y-87824000D02*
X51911500Y-87824000D01*
X83569400Y-67500000D02*
X80257500Y-67500000D01*
X78980700Y-67500100D02*
X80257500Y-67500100D01*
X102907000Y-70167000D02*
X101780100Y-70167000D01*
X76494600Y-68435000D02*
X78045800Y-68435000D01*
X80257500Y-87500000D02*
X80316900Y-87559400D01*
X67476200Y-70587300D02*
X74342300Y-70587300D01*
X79033400Y-65479400D02*
X73870200Y-65479400D01*
X70310400Y-91496000D02*
X59506700Y-91496000D01*
X79454000Y-65900000D02*
X79033400Y-65479400D01*
X76042500Y-85900000D02*
X80257500Y-85900000D01*
X75554100Y-86252300D02*
X70310400Y-91496000D01*
X55885900Y-65951000D02*
X55509300Y-66327600D01*
X54683800Y-66327600D02*
X54256200Y-65900000D01*
X80257500Y-65900000D02*
X79454000Y-65900000D01*
X59506700Y-91496000D02*
X54160700Y-86150000D01*
X101780100Y-67627000D02*
X100600300Y-66447200D01*
X55509300Y-66327600D02*
X54683800Y-66327600D01*
X54256200Y-65900000D02*
X51837500Y-65900000D01*
X83751400Y-65900000D02*
X80257500Y-65900000D01*
X84298600Y-66447200D02*
X83751400Y-65900000D01*
X73870200Y-65479400D02*
X71431100Y-67918500D01*
X54160700Y-86150000D02*
X51837500Y-86150000D01*
X102907000Y-67627000D02*
X101780100Y-67627000D01*
X75690200Y-86252300D02*
X75554100Y-86252300D01*
X75690200Y-86252300D02*
X76042500Y-85900000D01*
X100600300Y-66447200D02*
X84298600Y-66447200D01*
X50747500Y-70240100D02*
X50747500Y-57524100D01*
X53413100Y-74964600D02*
X53413100Y-72815400D01*
X81249600Y-77100000D02*
X81929900Y-76419700D01*
X52536000Y-77350000D02*
X51837500Y-77350000D01*
X98238700Y-71437000D02*
X96285900Y-73389800D01*
X51296700Y-70789300D02*
X50747500Y-70240100D01*
X78769900Y-57557200D02*
X79227100Y-57100000D01*
X104514100Y-66694100D02*
X104514100Y-70185400D01*
X53017500Y-76868500D02*
X52536000Y-77350000D01*
X53017500Y-75360200D02*
X53413100Y-74964600D01*
X103262500Y-71437000D02*
X98238700Y-71437000D01*
X79227100Y-57100000D02*
X80257500Y-57100000D01*
X54302400Y-76868500D02*
X53017500Y-76868500D01*
X51387000Y-70789300D02*
X51296700Y-70789300D01*
X104514100Y-70185400D02*
X103262500Y-71437000D01*
X53413100Y-72815400D02*
X51387000Y-70789300D01*
X80257500Y-77100000D02*
X81249600Y-77100000D01*
X102907000Y-65087000D02*
X104514100Y-66694100D01*
X80257500Y-77100000D02*
X70440100Y-77100000D01*
X53017500Y-76868500D02*
X53017500Y-75360200D01*
X50747500Y-57524100D02*
X51171600Y-57100000D01*
X51171600Y-57100000D02*
X51837500Y-57100000D01*
X53064900Y-89350000D02*
X51837500Y-89350000D01*
X84916600Y-69492200D02*
X86279200Y-70854800D01*
X52468500Y-69100000D02*
X53448300Y-70079800D01*
X75996200Y-71953500D02*
X77232400Y-70717300D01*
X80908700Y-69100000D02*
X81266300Y-68742400D01*
X51837500Y-69100000D02*
X52468500Y-69100000D01*
X79631500Y-69100000D02*
X80257500Y-69100000D01*
X82193100Y-68742400D02*
X82942900Y-69492200D01*
X82942900Y-69492200D02*
X84916600Y-69492200D01*
X56147500Y-92432600D02*
X53064900Y-89350000D01*
X81266300Y-68742400D02*
X82193100Y-68742400D01*
X64739700Y-71953500D02*
X75996200Y-71953500D01*
X80257500Y-89100000D02*
X78530100Y-89100000D01*
X78530100Y-89100000D02*
X75197500Y-92432600D01*
X75197500Y-92432600D02*
X56147500Y-92432600D01*
X80257500Y-69100000D02*
X80908700Y-69100000D01*
X78014200Y-70717300D02*
X79631500Y-69100000D01*
X64127900Y-71341700D02*
X64739700Y-71953500D01*
X80257500Y-89100000D02*
X89842600Y-89100000D01*
X53448300Y-70079800D02*
X53448300Y-70190100D01*
X77232400Y-70717300D02*
X78014200Y-70717300D01*
X43206600Y-88310000D02*
X42972500Y-88075900D01*
X73155600Y-65317100D02*
X73075100Y-65317100D01*
X73613300Y-84581700D02*
X69895000Y-88300000D01*
X102907000Y-57467000D02*
X101780100Y-57467000D01*
X78099400Y-64323300D02*
X74149400Y-64323300D01*
X98113200Y-53800100D02*
X86073000Y-53800100D01*
X40031600Y-68300100D02*
X40031600Y-68300000D01*
X73075100Y-65317100D02*
X70433200Y-67959000D01*
X42972500Y-88075900D02*
X41896400Y-88075900D01*
X74149400Y-64323300D02*
X73155600Y-65317100D01*
X69082500Y-68300000D02*
X70433200Y-68300000D01*
X70433200Y-67959000D02*
X70433200Y-68300000D01*
X39346600Y-68985100D02*
X40031600Y-68300100D01*
X69895000Y-88300000D02*
X69082500Y-88300000D01*
X41896400Y-88075900D02*
X41422300Y-88550000D01*
X41422300Y-88550000D02*
X40662500Y-88550000D01*
X101780100Y-57467000D02*
X98113200Y-53800100D01*
X39346600Y-69109700D02*
X39346600Y-68985100D01*
X59144500Y-88300000D02*
X69082500Y-88300000D01*
X40031600Y-68300000D02*
X40662500Y-68300000D01*
X72927800Y-86734300D02*
X72927800Y-86237000D01*
X41819300Y-90150000D02*
X40662500Y-90150000D01*
X75856200Y-67797400D02*
X73753600Y-69900000D01*
X69926000Y-89736100D02*
X72927800Y-86734300D01*
X69246300Y-89736100D02*
X69926000Y-89736100D01*
X77566300Y-67797400D02*
X75856200Y-67797400D01*
X78611100Y-66752600D02*
X77566300Y-67797400D01*
X73753600Y-69900000D02*
X70999900Y-69900000D01*
X69082500Y-69900000D02*
X70999900Y-69900000D01*
X39445600Y-71116900D02*
X40662500Y-69900000D01*
X69246300Y-89736200D02*
X69246300Y-89736100D01*
X69082500Y-89900000D02*
X60386800Y-89900000D01*
X69082500Y-89900000D02*
X69246300Y-89736200D01*
X42290700Y-89678600D02*
X41819300Y-90150000D01*
X39445600Y-72166700D02*
X39445600Y-71116900D01*
X60386800Y-89900000D02*
X60360100Y-89873300D01*
X99320800Y-77171700D02*
X99893700Y-76598800D01*
X75496100Y-71496300D02*
X75792000Y-71200400D01*
X66261500Y-71496300D02*
X75496100Y-71496300D01*
X127107000Y-77787000D02*
X125980100Y-77787000D01*
X124791900Y-76598800D02*
X125980100Y-77787000D01*
X65340200Y-70575000D02*
X66261500Y-71496300D01*
X62625000Y-70575000D02*
X65340200Y-70575000D01*
X99893700Y-76598800D02*
X124791900Y-76598800D01*
X94595000Y-77171700D02*
X99320800Y-77171700D01*
X67930700Y-79500000D02*
X66868400Y-78437700D01*
X66868400Y-78437700D02*
X66015700Y-78437700D01*
X55092600Y-83832000D02*
X54325600Y-83832000D01*
X54325600Y-83832000D02*
X53822500Y-83328900D01*
X66015700Y-78437700D02*
X61831400Y-82622000D01*
X56302600Y-82622000D02*
X55092600Y-83832000D01*
X61831400Y-82622000D02*
X56302600Y-82622000D01*
X69082500Y-79500000D02*
X75515900Y-79500000D01*
X69082500Y-79500000D02*
X67930700Y-79500000D01*
X40662500Y-79750000D02*
X46085300Y-79750000D01*
X69752300Y-80300000D02*
X70402000Y-80949700D01*
X70402000Y-80949700D02*
X70402000Y-81267500D01*
X70402000Y-81267500D02*
X70402000Y-82539100D01*
X40662500Y-80550000D02*
X45177000Y-80550000D01*
X69082500Y-80300000D02*
X69752300Y-80300000D01*
X70402000Y-81267500D02*
X75515900Y-81267500D01*
X65861800Y-84718000D02*
X66745200Y-84718000D01*
X111867000Y-87947000D02*
X110740100Y-87947000D01*
X67284900Y-83800600D02*
X68385500Y-82700000D01*
X68385500Y-82700000D02*
X69082500Y-82700000D01*
X45884500Y-82950000D02*
X40662500Y-82950000D01*
X66745200Y-84718000D02*
X67284900Y-84178300D01*
X106117400Y-92569700D02*
X83038200Y-92569700D01*
X110740100Y-87947000D02*
X106117400Y-92569700D01*
X67284900Y-84178300D02*
X67284900Y-83800600D01*
X83038200Y-92569700D02*
X82796600Y-92328100D01*
X67736800Y-84205700D02*
X67736800Y-85001000D01*
X68442500Y-83500000D02*
X67736800Y-84205700D01*
X44588200Y-83750000D02*
X40662500Y-83750000D01*
X69082500Y-83500000D02*
X68442500Y-83500000D01*
X67736800Y-85001000D02*
X67341300Y-85396500D01*
X122197100Y-84164000D02*
X125980100Y-87947000D01*
X74014400Y-87054300D02*
X74014400Y-86963100D01*
X70036300Y-91032400D02*
X74014400Y-87054300D01*
X84539000Y-83858300D02*
X87031000Y-83858300D01*
X59739900Y-91032400D02*
X70036300Y-91032400D01*
X82190900Y-84628800D02*
X83768500Y-84628800D01*
X81062100Y-83500000D02*
X82190900Y-84628800D01*
X51837500Y-83750000D02*
X52457500Y-83750000D01*
X127107000Y-87947000D02*
X125980100Y-87947000D01*
X87336700Y-84164000D02*
X122197100Y-84164000D01*
X52457500Y-83750000D02*
X59739900Y-91032400D01*
X87031000Y-83858300D02*
X87336700Y-84164000D01*
X77477500Y-83500000D02*
X80257500Y-83500000D01*
X80257500Y-83500000D02*
X81062100Y-83500000D01*
X74014400Y-86963100D02*
X77477500Y-83500000D01*
X83768500Y-84628800D02*
X84539000Y-83858300D01*
X73562500Y-86761000D02*
X77623500Y-82700000D01*
X85776900Y-81730400D02*
X83330400Y-84176900D01*
X82677500Y-84176900D02*
X81200600Y-82700000D01*
X52464500Y-82950000D02*
X60072100Y-90557600D01*
X125980100Y-85407000D02*
X122303500Y-81730400D01*
X83330400Y-84176900D02*
X82677500Y-84176900D01*
X122303500Y-81730400D02*
X85776900Y-81730400D01*
X81200600Y-82700000D02*
X80257500Y-82700000D01*
X77623500Y-82700000D02*
X80257500Y-82700000D01*
X60072100Y-90557600D02*
X69864600Y-90557600D01*
X69864600Y-90557600D02*
X73562500Y-86859700D01*
X51837500Y-82950000D02*
X52464500Y-82950000D01*
X73562500Y-86859700D02*
X73562500Y-86761000D01*
X127107000Y-85407000D02*
X125980100Y-85407000D01*
X77440700Y-80300000D02*
X80257500Y-80300000D01*
X71105600Y-81962500D02*
X75778200Y-81962500D01*
X50521700Y-79939100D02*
X51132600Y-80550000D01*
X51132600Y-80550000D02*
X51837500Y-80550000D01*
X75778200Y-81962500D02*
X77440700Y-80300000D01*
X125980100Y-80327000D02*
X124853200Y-79200100D01*
X80257500Y-79500000D02*
X77497700Y-79500000D01*
X124853200Y-79200100D02*
X84628900Y-79200100D01*
X127107000Y-80327000D02*
X125980100Y-80327000D01*
X83400200Y-77971400D02*
X82704400Y-77971400D01*
X82704400Y-77971400D02*
X81175800Y-79500000D01*
X77497700Y-79500000D02*
X76740900Y-80256800D01*
X53163700Y-79750000D02*
X51837500Y-79750000D01*
X76740900Y-80256800D02*
X70693400Y-80256800D01*
X84628900Y-79200100D02*
X83400200Y-77971400D01*
X81175800Y-79500000D02*
X80257500Y-79500000D01*
X40689200Y-65873300D02*
X40662500Y-65900000D01*
X102514100Y-56197000D02*
X97577200Y-51260100D01*
X46485000Y-67411700D02*
X48714800Y-65181900D01*
X46568100Y-67494900D02*
X46485000Y-67411700D01*
X40662500Y-86150000D02*
X42525400Y-86150000D01*
X103293700Y-56197000D02*
X102514100Y-56197000D01*
X104057900Y-58010900D02*
X104057900Y-56961200D01*
X103188700Y-58880100D02*
X104057900Y-58010900D01*
X97577200Y-51260100D02*
X75385400Y-51260100D01*
X44946500Y-65873300D02*
X40689200Y-65873300D01*
X59252200Y-86096300D02*
X68886200Y-86096300D01*
X75385400Y-51260100D02*
X74470900Y-52174600D01*
X68886200Y-86096300D02*
X69082500Y-85900000D01*
X48978300Y-76748100D02*
X48171800Y-75941600D01*
X46568100Y-67839500D02*
X46568100Y-67494900D01*
X61974300Y-61002600D02*
X66871700Y-65900000D01*
X102907000Y-60007000D02*
X102907000Y-58880100D01*
X44014900Y-84660500D02*
X45419100Y-84660500D01*
X42525400Y-86150000D02*
X44014900Y-84660500D01*
X66871700Y-65900000D02*
X69082500Y-65900000D01*
X45419100Y-84660500D02*
X48850900Y-81228700D01*
X104057900Y-56961200D02*
X103293700Y-56197000D01*
X102907000Y-58880100D02*
X103188700Y-58880100D01*
X46485000Y-67411700D02*
X44946500Y-65873300D01*
X48978300Y-77459700D02*
X48978300Y-76748100D01*
X48171800Y-69443200D02*
X46568100Y-67839500D01*
X56531800Y-83375900D02*
X59252200Y-86096300D01*
X48171800Y-75941600D02*
X48171800Y-69443200D01*
X55163900Y-68603600D02*
X55163900Y-67644400D01*
X55386600Y-68826300D02*
X55163900Y-68603600D01*
X58797800Y-64787300D02*
X61127200Y-62457900D01*
X54965200Y-65650600D02*
X55828500Y-64787300D01*
X69082500Y-57100000D02*
X66890800Y-57100000D01*
X57675000Y-73115000D02*
X57268400Y-73115000D01*
X57268400Y-73115000D02*
X55386600Y-71233200D01*
X55386600Y-71233200D02*
X55386600Y-68826300D01*
X55828500Y-64787300D02*
X58797800Y-64787300D01*
X57675000Y-76925000D02*
X55991100Y-76925000D01*
X54316900Y-71488200D02*
X54164700Y-71336000D01*
X55991100Y-76925000D02*
X54316900Y-75250800D01*
X42239200Y-57969300D02*
X41369900Y-57100000D01*
X54316900Y-75250800D02*
X54316900Y-71488200D01*
X41369900Y-57100000D02*
X40662500Y-57100000D01*
X43819400Y-76588200D02*
X43057600Y-77350000D01*
X61839900Y-78980100D02*
X56030200Y-78980100D01*
X48275800Y-77789200D02*
X48275800Y-77000000D01*
X48275800Y-77000000D02*
X47864000Y-76588200D01*
X43057600Y-77350000D02*
X40662500Y-77350000D01*
X49065200Y-78578600D02*
X48275800Y-77789200D01*
X62625000Y-78195000D02*
X61839900Y-78980100D01*
X47864000Y-76588200D02*
X43819400Y-76588200D01*
X50490700Y-78578600D02*
X49065200Y-78578600D01*
X66930100Y-77100000D02*
X69082500Y-77100000D01*
X62625000Y-74385000D02*
X64215100Y-74385000D01*
X64215100Y-74385000D02*
X66930100Y-77100000D01*
M02*
