M48
; DRILL file {KiCad 8.0.0} date 2024-03-01T08:43:35-0500
; FORMAT={-:-/ absolute / metric / decimal}
; #@! TF.CreationDate,2024-03-01T08:43:35-05:00
; #@! TF.GenerationSoftware,Kicad,Pcbnew,8.0.0
; #@! TF.FileFunction,Plated,1,4,PTH
FMAT,2
METRIC
; #@! TA.AperFunction,Plated,PTH,ViaDrill
T1C0.300
; #@! TA.AperFunction,Plated,PTH,ComponentDrill
T2C0.800
; #@! TA.AperFunction,Plated,PTH,ComponentDrill
T3C1.000
%
G90
G05
T1
X37.75Y-58.8
X37.75Y-83.6
X37.8Y-79.05
X37.9Y-63.7
X38.606Y-73.964
X38.886Y-85.16
X39.309Y-68.066
X39.338Y-53.717
X39.347Y-69.11
X39.347Y-54.702
X39.446Y-72.167
X41.188Y-71.341
X41.978Y-56.3
X42.021Y-75.087
X42.177Y-88.753
X42.239Y-57.969
X42.291Y-89.679
X42.336Y-53.219
X42.76Y-71.229
X43.038Y-72.485
X43.207Y-88.31
X43.391Y-86.486
X43.931Y-66.55
X44.588Y-83.75
X44.785Y-63.879
X45.177Y-80.55
X45.448Y-63.203
X45.667Y-72.421
X45.884Y-82.95
X46.085Y-79.75
X47.453Y-70.206
X47.598Y-77.279
X48.041Y-68.355
X48.715Y-61.338
X48.715Y-62.526
X48.715Y-63.879
X48.715Y-65.182
X48.851Y-81.229
X48.978Y-77.46
X49.136Y-80.327
X49.597Y-71.325
X50.35Y-56.4
X50.45Y-76.65
X50.491Y-78.579
X50.522Y-79.939
X50.978Y-71.984
X53.155Y-66.7
X53.164Y-79.75
X53.169Y-60.061
X53.182Y-55.614
X53.424Y-62.754
X53.448Y-70.19
X53.526Y-87.824
X53.709Y-76.049
X53.822Y-83.329
X53.978Y-54.644
X54.165Y-71.336
X54.302Y-76.868
X54.48Y-64.86
X54.52Y-53.9
X54.65Y-58.45
X54.7Y-63.05
X54.7Y-78.45
X54.75Y-83.15
X54.965Y-65.651
X55.033Y-75.01
X55.164Y-67.644
X55.873Y-68.355
X55.886Y-65.951
X56.03Y-78.98
X56.141Y-70.575
X56.141Y-90.683
X56.532Y-83.376
X57.75Y-66.7
X59.145Y-88.3
X59.936Y-73.742
X60.029Y-70.655
X60.36Y-89.873
X60.838Y-89.061
X61.127Y-62.458
X61.974Y-61.003
X62.6Y-66.75
X63.736Y-58.9
X64.128Y-71.342
X64.616Y-73.745
X65.419Y-61.646
X65.862Y-84.718
X66.399Y-73.086
X66.4Y-79.15
X66.45Y-63.7
X66.45Y-84.0
X66.5Y-59.0
X66.819Y-74.7
X66.891Y-57.1
X66.954Y-69.108
X67.341Y-85.397
X67.382Y-67.466
X67.667Y-68.545
X70.402Y-82.539
X70.433Y-68.3
X70.44Y-77.1
X70.443Y-64.489
X70.524Y-65.906
X70.693Y-80.257
X70.713Y-54.697
X70.731Y-62.712
X70.829Y-74.584
X71.0Y-69.9
X71.106Y-81.962
X71.301Y-85.056
X71.431Y-67.918
X71.956Y-59.591
X72.068Y-56.073
X72.237Y-82.957
X72.329Y-54.619
X72.501Y-63.736
X72.928Y-86.237
X72.972Y-89.791
X73.033Y-53.9
X73.123Y-62.586
X73.279Y-59.076
X73.387Y-58.171
X73.613Y-84.582
X74.41Y-67.522
X74.471Y-52.175
X75.516Y-79.5
X75.516Y-81.267
X75.69Y-86.252
X75.792Y-71.2
X75.885Y-89.285
X77.51Y-63.637
X77.692Y-66.67
X78.099Y-64.323
X78.126Y-75.624
X78.395Y-72.403
X78.525Y-74.61
X78.611Y-66.753
X78.668Y-69.1
X78.7Y-56.35
X78.77Y-57.557
X78.9Y-76.35
X78.941Y-60.3
X81.573Y-69.424
X81.584Y-59.5
X81.789Y-73.481
X81.93Y-76.42
X82.239Y-75.066
X82.479Y-72.829
X82.679Y-73.998
X82.797Y-92.328
X82.9Y-58.55
X82.95Y-63.5
X82.977Y-76.191
X83.0Y-78.65
X83.05Y-83.5
X83.086Y-68.201
X84.075Y-64.698
X84.434Y-87.559
X85.047Y-91.886
X85.398Y-84.987
X85.775Y-86.917
X86.073Y-53.8
X86.279Y-70.855
X86.53Y-84.567
X89.648Y-70.737
X89.843Y-89.1
X91.159Y-90.97
X94.595Y-77.172
X96.286Y-73.39
X96.768Y-76.341
X105.199Y-80.63
T2
X87.667Y-52.387
X87.667Y-54.927
X87.667Y-57.467
X87.667Y-60.007
X87.667Y-62.547
X87.667Y-65.087
X87.667Y-67.627
X87.667Y-70.167
X87.667Y-72.707
X87.667Y-75.247
X87.667Y-77.787
X87.667Y-80.327
X87.667Y-82.867
X87.667Y-85.407
X87.667Y-87.947
X87.667Y-90.487
X102.907Y-52.387
X102.907Y-54.927
X102.907Y-57.467
X102.907Y-60.007
X102.907Y-62.547
X102.907Y-65.087
X102.907Y-67.627
X102.907Y-70.167
X102.907Y-72.707
X102.907Y-75.247
X102.907Y-77.787
X102.907Y-80.327
X102.907Y-82.867
X102.907Y-85.407
X102.907Y-87.947
X102.907Y-90.487
X111.867Y-52.387
X111.867Y-54.927
X111.867Y-57.467
X111.867Y-60.007
X111.867Y-62.547
X111.867Y-65.087
X111.867Y-67.627
X111.867Y-70.167
X111.867Y-72.707
X111.867Y-75.247
X111.867Y-77.787
X111.867Y-80.327
X111.867Y-82.867
X111.867Y-85.407
X111.867Y-87.947
X111.867Y-90.487
X127.107Y-52.387
X127.107Y-54.927
X127.107Y-57.467
X127.107Y-60.007
X127.107Y-62.547
X127.107Y-65.087
X127.107Y-67.627
X127.107Y-70.167
X127.107Y-72.707
X127.107Y-75.247
X127.107Y-77.787
X127.107Y-80.327
X127.107Y-82.867
X127.107Y-85.407
X127.107Y-87.947
X127.107Y-90.487
T3
X58.638Y-52.55
X58.638Y-55.09
X58.638Y-57.63
X58.638Y-60.17
X58.638Y-62.71
M30
